<svg xmlns="http://www.w3.org/2000/svg" viewBox="0 0 1200 675" role="img" aria-labelledby="title desc">
  <title id="title">Bilgi Yarismasi</title>
  <desc id="desc">Mavi turuncu tonlarda bilgi yarismasi kapak gorseli</desc>
  <defs>
    <linearGradient id="bg" x1="0" x2="1" y1="0" y2="1">
      <stop offset="0%" stop-color="#0d6efd" />
      <stop offset="100%" stop-color="#6ea8fe" />
    </linearGradient>
    <linearGradient id="card" x1="0" x2="1" y1="0" y2="1">
      <stop offset="0%" stop-color="#ffffff" stop-opacity="0.95" />
      <stop offset="100%" stop-color="#dbeafe" stop-opacity="0.88" />
    </linearGradient>
  </defs>
  <rect width="1200" height="675" fill="url(#bg)" rx="32" />
  <circle cx="220" cy="140" r="90" fill="#ffd43b" fill-opacity="0.35" />
  <circle cx="1020" cy="560" r="120" fill="#fd7e14" fill-opacity="0.25" />
  <rect x="90" y="110" width="1020" height="455" rx="28" fill="url(#card)" />
  <rect x="150" y="180" width="360" height="240" rx="22" fill="#0b1f44" />
  <rect x="190" y="222" width="280" height="24" rx="12" fill="#6ea8fe" />
  <rect x="190" y="270" width="220" height="20" rx="10" fill="#f8f9fa" fill-opacity="0.9" />
  <rect x="190" y="308" width="250" height="20" rx="10" fill="#f8f9fa" fill-opacity="0.78" />
  <rect x="190" y="346" width="180" height="20" rx="10" fill="#f8f9fa" fill-opacity="0.68" />
  <circle cx="900" cy="250" r="82" fill="#fd7e14" />
  <text x="900" y="268" text-anchor="middle" font-size="72" font-family="Segoe UI, Arial, sans-serif" font-weight="700" fill="#ffffff">?</text>
  <text x="585" y="238" font-size="58" font-family="Segoe UI, Arial, sans-serif" font-weight="700" fill="#0b1f44">Bilgi Yarismasi</text>
  <text x="585" y="304" font-size="30" font-family="Segoe UI, Arial, sans-serif" fill="#284b7a">OSYM formatinda denemeler, aylik puan ve odul sistemi</text>
  <text x="585" y="366" font-size="26" font-family="Segoe UI, Arial, sans-serif" fill="#284b7a">TYT • AYT • KPSS • YDS</text>
  <rect x="585" y="420" width="250" height="62" rx="31" fill="#198754" />
  <text x="710" y="460" text-anchor="middle" font-size="28" font-family="Segoe UI, Arial, sans-serif" font-weight="700" fill="#ffffff">Simdi Basla</text>
</svg>